<?xml version="1.0" standalone="no"?><!DOCTYPE svg PUBLIC "-//W3C//DTD SVG 1.1//EN" "http://www.w3.org/Graphics/SVG/1.1/DTD/svg11.dtd"><svg t="1491551204270" class="icon" style="" viewBox="0 0 1024 1024" version="1.1" xmlns="http://www.w3.org/2000/svg" p-id="4272" xmlns:xlink="http://www.w3.org/1999/xlink" width="128" height="128"><defs><style type="text/css"></style></defs><path d="M685.9392 385.9072c-12.8896-12.5312-33.792-12.5312-46.6816 0l-108.7232 105.5744-108.7232-105.5744c-12.9024-12.5312-33.792-12.5312-46.6816 0-12.9024 12.5184-12.9024 32.8064 0 45.3376l108.7232 105.5744-108.7232 105.5744c-12.9024 12.5184-12.9024 32.8064 0 45.3376 6.4512 6.2592 14.8992 9.3952 23.3472 9.3952 8.448 0 16.896-3.136 23.3472-9.3952l108.7232-105.5744 108.7232 105.5744c6.4512 6.2592 14.8992 9.3952 23.3472 9.3952 8.448 0 16.896-3.136 23.3472-9.3952 12.9024-12.5184 12.9024-32.8064 0-45.3376l-108.7232-105.5744 108.7232-105.5744C698.8416 418.7264 698.8416 398.4384 685.9392 385.9072zM920.192 466.9056c-2.7392-14.528-6.3872-29.0176-10.8416-43.0848-5.3504-16.9344-23.7568-26.4832-41.2416-21.2608-17.4464 5.184-27.2512 23.1296-21.888 40.0384 3.712 11.712 6.7328 23.7824 9.024 35.8784 5.8624 31.0912 7.0016 63.0656 3.3152 95.0912-15.8976 139.328-130.2272 256.7936-271.8592 279.36-107.8144 17.2032-213.4144-15.4112-289.6256-89.408-76.1856-74.0096-109.7472-176.5248-92.0576-281.2672 23.1552-137.2544 138.9952-245.5424 281.664-263.3088 114.0096-14.1184 225.4336 28.2112 298.2016 113.4464 11.5712 13.6192 32.3968 15.5392 46.464 4.2368 14.0544-11.3024 15.9872-31.5136 4.352-45.1456-87.2448-102.2464-221.0176-153.28-357.4016-136.1152-171.4304 21.3376-310.592 151.5008-338.4448 316.5184-21.184 125.3632 19.0848 248.1792 110.528 336.9856 75.4432 73.2672 174.7456 112.7168 279.6928 112.7168 22.2464 0 44.7488-1.7664 67.328-5.3632 173.0048-27.5584 307.392-165.5296 326.8096-335.5392C928.6016 542.4384 927.2448 504.1664 920.192 466.9056z" p-id="4273" fill="#707070"></path></svg>