<?xml version="1.0" standalone="no"?><!DOCTYPE svg PUBLIC "-//W3C//DTD SVG 1.1//EN" "http://www.w3.org/Graphics/SVG/1.1/DTD/svg11.dtd"><svg t="1493126308156" class="icon" style="" viewBox="0 0 1024 1024" version="1.1" xmlns="http://www.w3.org/2000/svg" p-id="52922" xmlns:xlink="http://www.w3.org/1999/xlink" width="200" height="200"><defs><style type="text/css"></style></defs><path d="M567.999488 707.99872l-28.000256 0L539.999232 457.749504c0-0.292864-0.013312-0.58368-0.021504-0.874496 0.009216-0.290816 0.021504-0.581632 0.021504-0.874496 0-15.463424-12.536832-28.000256-28.000256-28.000256l-56.000512 0c-15.463424 0-28.000256 12.536832-28.000256 28.000256 0 15.4624 12.536832 28.000256 28.000256 28.000256l28.000256 0 0 224-28.000256 0c-15.463424 0-28.000256 12.535808-28.000256 28.000256 0 15.4624 12.536832 28.000256 28.000256 28.000256l112 0c15.463424 0 28.000256-12.537856 28.000256-28.000256C595.999744 720.535552 583.462912 707.99872 567.999488 707.99872z" p-id="52923" fill="#ffffff"></path><path d="M512 371.99872c30.925824 0 56.000512-25.074688 56.000512-56.000512 0-30.925824-25.073664-56.000512-56.000512-56.000512-30.9248 0-56.000512 25.073664-56.000512 56.000512C455.999488 346.924032 481.0752 371.99872 512 371.99872z" p-id="52924" fill="#ffffff"></path><path d="M512 63.998976c-247.41888 0-448 200.580096-448 448 0 247.433216 200.58112 448 448 448 247.43424 0 448-200.566784 448-448C960 264.579072 759.43424 63.998976 512 63.998976zM512 904.87296c-216.152064 0-392.000512-176.72192-392.000512-392.873984 0-216.153088 175.848448-392.000512 392.000512-392.000512 216.153088 0 392.000512 175.847424 392.000512 392.000512C903.999488 728.15104 728.153088 904.87296 512 904.87296z" p-id="52925" fill="#ffffff"></path></svg>