<?xml version="1.0" standalone="no"?><!DOCTYPE svg PUBLIC "-//W3C//DTD SVG 1.1//EN" "http://www.w3.org/Graphics/SVG/1.1/DTD/svg11.dtd"><svg t="1492607152844" class="icon" style="" viewBox="0 0 1024 1024" version="1.1" xmlns="http://www.w3.org/2000/svg" p-id="2640" xmlns:xlink="http://www.w3.org/1999/xlink" width="200" height="200"><defs><style type="text/css"></style></defs><path d="M611.137393 612.675934l-1.497097-0.254803c-0.396019-0.046049-39.553854-4.523013-39.553854-29.058826 0-8.936533 4.476965-15.516392 32.244378-33.139771 44.620243-28.328185 92.651167-93.405343 92.651167-169.345919 0-107.787912-82.83459-195.48116-184.656627-195.48116-101.809757 0-184.646394 87.693248-184.646394 195.48116 0 74.569346 41.152259 143.698796 104.755856 176.061878 0 0 6.415107 3.314489 7.242961 3.648087 8.919137 4.817726 23.87885 15.119349 23.87885 30.096459 0 12.398378-4.906753 18.315134-18.110473 22.429849-3.411703 0.838088-6.777357 1.772366-10.778484 2.867304-5.122671 1.24127-9.961886 2.413979-14.257725 4.239558l-1.949398 0.877997c-115.635647 39.151695-190.177364 132.334981-190.177364 238.146888l0 11.605316 603.954295 0 0-11.605316C830.23646 745.295394 740.135372 643.905192 611.137393 612.675934zM249.833557 847.63727c5.327332-91.676979 73.532737-171.528632 176.826288-205.471698l7.560186-2.668783c1.257643-0.318248 2.583848-0.63445 3.922333-0.962931l1.450025-0.36225c3.12927-0.876973 6.245238-1.744737 10.06524-2.708692 8.680706-2.685155 35.110659-10.873652 35.110659-44.778856 0-27.024493-22.597671-43.25413-36.84414-50.904367-1.417279-0.63445-6.744611-3.422959-6.868431-3.479241-55.988152-28.491914-92.164073-89.500407-92.164073-155.422815 0-94.992491 72.42245-172.269505 161.435763-172.269505 89.025593 0 161.448042 77.277014 161.448042 172.269505 0 67.173912-42.444694 124.715443-81.885985 149.750629-25.182542 15.987113-43.00956 29.128411-43.00956 52.735062 0 35.637662 37.015032 49.414433 59.501162 52.049446 113.722064 27.795043 194.370873 113.992217 200.297862 212.226542L249.833557 847.639317z" p-id="2641" fill="#ffffff"></path><path d="M243.838006 599.902002c0-15.776312-9.894348-29.788443-28.605501-39.838334-1.076518-0.491187-4.749164-2.408863-4.861728-2.464121-39.565111-20.138666-65.134463-63.297628-65.134463-109.952204 0-67.180052 51.125401-121.830743 113.959471-121.830743 15.017018 0 29.591969 3.065825 43.316551 9.106402l9.361205-21.23872c-16.705474-7.350408-34.419927-11.079336-52.67878-11.079336-75.640748 0-137.170103 65.065901-137.170103 145.042397 0 55.296397 30.543643 106.575294 77.736479 130.591267 0 0 4.79419 2.477424 5.201465 2.628874 4.714372 2.538823 15.662725 9.469676 15.662725 19.034519 0 7.627724-2.550079 10.631128-10.721179 13.181207-2.51631 0.623193-4.987594 1.308809-7.752568 2.068102-3.865028 0.935302-7.514137 1.818415-10.903328 3.247974l-1.473561 0.656963C104.707248 647.973858 49.886689 716.712405 49.886689 794.794761l0 11.607362 153.490813 0 0-23.212678L73.574181 783.189446c5.247514-63.790862 53.483098-119.098515 125.904525-142.898571l5.89322-2.040473c0.725524-0.176009 1.473561-0.350994 2.232854-0.538259l1.14508-0.283456c2.220574-0.62831 4.442172-1.245364 7.366781-1.988284C234.51057 629.733425 243.838006 617.776092 243.838006 599.902002z" p-id="2642" fill="#ffffff"></path><path d="M840.109318 619.174951l-1.824555-0.775666c-3.364631-1.423419-7.004531-2.301416-11.186783-3.309372-2.470261-0.697895-4.952802-1.38351-6.811126-1.818415-8.81783-2.738367-11.366885-5.734608-11.366885-13.368472 0-9.219989 9.803273-15.882736 14.880919-18.653849 1.167592-0.527003 5.870708-2.958378 5.882987-2.963495 47.282886-24.062022 77.827553-75.340919 77.827553-130.637316 0-79.975473-61.530378-145.042397-137.171126-145.042397-18.247596 0-35.96205 3.728928-52.667523 11.073196l9.339716 21.251c13.748119-6.046716 28.322046-9.112542 43.327808-9.112542 62.833047 0 113.958448 54.650691 113.958448 121.830743 0 46.654576-25.568329 89.813538-65.22349 109.998253-0.021489 0.010233-3.695159 1.926886-5.520737 2.787486-17.950837 9.685593-27.845185 23.704888-27.845185 39.46892 0 17.879206 9.31618 29.836539 28.367071 35.71748 2.266623 0.562818 4.499477 1.178849 6.721075 1.808182l1.176802 0.294712c0.353041 0.084934 0.704035 0.169869 1.043772 0.248663l7.039323 2.319835c72.420403 23.800056 120.657011 79.107709 125.903501 142.898571l-97.831142 0 0 23.212678 121.518634 0L979.648374 794.794761C979.648374 716.814736 924.986427 648.162146 840.109318 619.174951z" p-id="2643" fill="#ffffff"></path></svg>