<?xml version="1.0" standalone="no"?><!DOCTYPE svg PUBLIC "-//W3C//DTD SVG 1.1//EN" "http://www.w3.org/Graphics/SVG/1.1/DTD/svg11.dtd"><svg t="1493037456809" class="icon" style="" viewBox="0 0 1024 1024" version="1.1" xmlns="http://www.w3.org/2000/svg" p-id="43093" xmlns:xlink="http://www.w3.org/1999/xlink" width="200" height="200"><defs><style type="text/css"></style></defs><path d="M777.073418 748.556962c-30.460759-21.387342-40.83038-40.182278-76.47595-53.792405 25.275949-60.273418 40.182278-83.605063 42.126583-154.896203H887.898734c-3.888608 99.159494-45.367089 143.878481-110.825316 208.688608zM136.101266 539.868354h167.210126c1.944304 71.291139 16.850633 94.622785 42.126583 154.896203-34.997468 13.610127-68.050633 31.756962-98.511393 53.792405C181.468354 683.746835 139.989873 639.027848 136.101266 539.868354z m103.048101-259.888607c29.164557 23.979747 61.56962 42.774684 96.567089 57.681012-19.443038 53.792405-30.460759 90.734177-31.756962 152.951899H136.101266c3.240506-90.734177 46.663291-147.767089 103.048101-210.632911z m309.144304 209.98481V372.010127c47.311392-1.296203 71.291139-10.36962 114.065823-25.27595 18.146835 51.2 28.516456 84.901266 30.460759 143.23038H548.293671z m104.344304 195.078481c-40.182278-12.962025-60.273418-20.091139-104.344304-21.387342V539.868354h144.526582c-1.944304 68.050633-16.202532 88.141772-40.182278 145.174684z m36.941772 57.681013c31.756962 12.313924 39.534177 28.516456 66.75443 47.311392-51.848101 44.718987-114.713924 73.883544-182.116455 84.901266 36.941772-37.589873 90.734177-82.308861 115.362025-132.212658z m-163.321519 137.397468l22.035443-165.913924c40.182278 1.296203 56.38481 7.777215 92.678481 18.794937-27.220253 56.38481-66.106329 106.288608-113.417722 147.118987h-1.296202z m-75.827848-5.18481c-67.402532-11.017722-130.268354-40.83038-182.764557-84.901266 27.868354-19.443038 57.681013-34.997468 88.789873-47.311392 23.331646 48.607595 55.088608 93.326582 93.974684 132.212658z m47.311392-335.068355v123.787342c-44.070886 1.296203-64.162025 8.425316-104.344304 21.387342-23.979747-57.681013-38.237975-77.124051-40.182278-145.174684h144.526582zM383.675949 346.734177c42.774684 14.906329 66.75443 23.331646 114.065823 25.27595v117.95443H353.21519c1.944304-58.329114 12.313924-92.03038 30.460759-143.23038z m-37.589873-57.032911c-31.756962-12.962025-60.921519-30.460759-88.141772-51.848101 53.792405-51.848101 115.362025-91.382278 192.486076-104.344304-44.718987 44.718987-80.364557 97.863291-104.344304 156.192405z m151.655696-161.377215v193.782278c-44.070886-1.296203-64.162025-9.073418-103.696202-22.683544 29.164557-68.698734 49.903797-127.027848 102.4-171.098734h1.296202z m75.827848 4.536708c77.772152 13.610127 149.711392 49.903797 206.744304 104.344304-29.164557 22.035443-46.01519 37.589873-80.364557 51.848102-25.275949-59.625316-82.956962-112.76962-126.379747-156.192406z m-46.01519-4.536708c54.440506 46.01519 97.21519 104.992405 124.435443 171.098734-39.534177 13.610127-59.625316 21.387342-103.696202 22.683544l-22.035443-193.782278h1.296202z m-31.10886 751.149367c-46.663291-38.886076-62.865823-88.789873-91.382279-147.118988 36.293671-11.665823 53.144304-17.498734 93.326582-18.794936v165.913924h-1.944303zM887.898734 489.964557h-145.174683c-1.296203-61.56962-12.313924-98.511392-31.756962-152.303798 37.589873-15.55443 57.032911-33.053165 88.789873-57.681012 56.38481 62.865823 84.901266 119.898734 88.141772 209.98481z m-375.898734-427.746835c-244.334177 0-442.005063 197.670886-442.005063 442.005063S267.665823 946.227848 512 946.227848s442.005063-197.670886 442.005063-442.005063S756.334177 62.217722 512 62.217722z" p-id="43094" fill="#ffffff"></path></svg>