<?xml version="1.0" standalone="no"?><!DOCTYPE svg PUBLIC "-//W3C//DTD SVG 1.1//EN" "http://www.w3.org/Graphics/SVG/1.1/DTD/svg11.dtd"><svg t="1493037941058" class="icon" style="" viewBox="0 0 1024 1024" version="1.1" xmlns="http://www.w3.org/2000/svg" p-id="50261" xmlns:xlink="http://www.w3.org/1999/xlink" width="200" height="200"><defs><style type="text/css"></style></defs><path d="M890.112 382.477c0-165.285-151.985-299.244-339.487-299.244-94.095 0-179.272 33.803-240.732 88.33-37.995 28.835-68.872 66.019-86.34 111.95-10.322 27.203-19.315 63.728-19.712 93.05-0.567 36.588 17.39 72.42 1.579 108.035-10.996 24.912-39.577 46-57.964 65.866 0 0-51.46 34.126 46.727 38.778 2.768 0.122 15.196 58.624 18.293 72.002-1.95 2.668-3.097 5.53-3.097 10.134 0 11.215 14.172 20.369 31.61 20.369h10.654c-23.032 3.12-39.64 12.11-39.64 24.509 0 8.577 10.912 19.89 27.254 26.68 0 0-20.144 65.002 9.737 79.339 5.13 2.23 11.73 2.915 20.136 1.47 42.405 2.307 118.295-0.7 160.498-0.7 0-0.77 22.2 117.647 22.2 117.647h381.289c0 0.606-36.645-272.492-36.645-272.492 67.085-95.738 90.318-181.44 91.577-253.071 1.338-10.727 2.063-21.575 2.063-32.652z m-200.92-50.717c-27.528 0-51.098-16.27-62.106-39.62l-51.481 29.722c6.443 13.471 10.352 28.379 10.352 44.31 0 21.255-6.452 40.992-17.464 57.41l96.581 55.76c6.213-6.12 14.71-9.934 24.119-9.934 19.003 0 34.411 15.408 34.411 34.412 0 19.006-15.408 34.411-34.411 34.411-19.006 0-34.412-15.405-34.412-34.411 0-3.353 1.012-6.388 1.907-9.452l-99.238-57.294c-18.812 19.822-45.243 32.334-74.728 32.334-57.015 0-103.235-46.22-103.235-103.235s46.22-103.235 103.235-103.235c34.92 0 65.66 17.449 84.343 43.988l54.565-31.502c-0.746-4.063-1.26-8.21-1.26-12.486 0-38.01 30.81-68.824 68.823-68.824 38.01 0 68.823 30.814 68.823 68.824s-30.814 68.822-68.823 68.822z" fill="#ffffff" p-id="50262"></path></svg>