<?xml version="1.0" standalone="no"?><!DOCTYPE svg PUBLIC "-//W3C//DTD SVG 1.1//EN" "http://www.w3.org/Graphics/SVG/1.1/DTD/svg11.dtd"><svg t="1492607182959" class="icon" style="" viewBox="0 0 1024 1024" version="1.1" xmlns="http://www.w3.org/2000/svg" p-id="3356" xmlns:xlink="http://www.w3.org/1999/xlink" width="200" height="200"><defs><style type="text/css"></style></defs><path d="M164.380326 734.540446c-30.865985 0-58.479903 25.990954-58.479903 56.854892 0 30.861892 27.613918 58.480926 58.479903 58.480926 30.860868 0 56.854892-27.619034 56.854892-58.480926C221.234195 760.5314 195.241194 734.540446 164.380326 734.540446L164.380326 734.540446zM164.380326 455.146131c-30.865985 0-58.479903 25.987884-58.479903 56.853869 0 30.860868 27.613918 56.852846 58.479903 56.852846 30.860868 0 56.854892-25.990954 56.854892-56.852846C221.234195 481.132992 195.241194 455.146131 164.380326 455.146131L164.380326 455.146131zM372.298749 284.5835 864.492658 284.5835c29.239951 0 53.606919-22.745027 53.606919-51.979862 0-29.239951-24.366967-53.606919-53.606919-53.606919L372.298749 178.99672c-29.234835 0-53.600779 24.366967-53.600779 53.606919C318.697971 261.838474 343.063915 284.5835 372.298749 284.5835L372.298749 284.5835zM164.380326 174.122713c-30.865985 0-58.479903 27.613918-58.479903 58.479903 0 30.860868 27.613918 56.854892 58.479903 56.854892 30.860868 0 56.854892-25.993001 56.854892-56.854892C221.234195 201.737654 195.241194 174.122713 164.380326 174.122713L164.380326 174.122713zM864.492658 458.392058 372.298749 458.392058c-29.234835 0-53.600779 24.366967-53.600779 53.606919s24.365944 53.607942 53.600779 53.607942L864.492658 565.606919c29.239951 0 53.606919-24.367991 53.606919-53.607942S893.732609 458.392058 864.492658 458.392058L864.492658 458.392058zM864.492658 737.789443 372.298749 737.789443c-29.234835 0-53.600779 24.365944-53.600779 53.605895 0 29.238928 24.365944 53.605895 53.600779 53.605895L864.492658 845.001233c29.239951 0 53.606919-24.366967 53.606919-53.605895C918.098553 762.154363 893.732609 737.789443 864.492658 737.789443L864.492658 737.789443zM864.492658 737.789443" p-id="3357" fill="#ffffff"></path></svg>