<?xml version="1.0" standalone="no"?><!DOCTYPE svg PUBLIC "-//W3C//DTD SVG 1.1//EN" "http://www.w3.org/Graphics/SVG/1.1/DTD/svg11.dtd"><svg t="1493039508698" class="icon" style="" viewBox="0 0 1000 1000" version="1.1" xmlns="http://www.w3.org/2000/svg" p-id="50975" xmlns:xlink="http://www.w3.org/1999/xlink" width="200" height="200"><defs><style type="text/css"></style></defs><path d="M939.3746 453.2357 542.9647 56.8425c-7.9-7.9006-18.2784-11.804-28.6318-11.7231-10.3534-0.0809-20.7318 3.8224-28.6308 11.7231L89.2922 453.2357c-15.6391 15.6384-15.6391 40.9862 0 56.6246 7.804 7.8027 18.0265 11.7101 28.255 11.7241v0.13490853201529363h39.678764305901446c21.9141 0 39.6788 17.771 39.6788 39.6831v277.73569519865526c0 43.8293 35.5304 79.3532 79.3585 79.3532h119.03329482449162c43.8291 0 79.3585-35.5249 79.3585-79.3532V720.1057682891001c0-21.9051 17.7637-39.6711 39.6768-39.6711 21.9141 0 39.6788 17.765 39.6788 39.6711v119.032296103242c0 43.8293 35.5304 79.3532 79.3565 79.3532h119.03529355330011c43.8271 0 79.3565-35.5249 79.3565-79.3532V561.4023691936867c0-21.9111 17.7637-39.6831 39.6788-39.6831h39.678764305901446v-0.13490853201529363c10.2285-0.015 20.453-3.9223 28.257-11.7251C955.0136 494.2219 955.0136 468.8741 939.3746 453.2357zM752.4035 521.7193v277.7436897783303c0 21.9151-17.7637 39.6751-39.6788 39.6751h-39.678764305901446c-21.9121 0-39.6788-17.759-39.6788-39.6751V680.4346652969286c0-43.8293-35.5304-79.3572-79.3565-79.3572h-79.35453051859018c-43.8291 0-79.3585 35.5289-79.3585 79.3572v119.0282988134045c0 21.9151-17.7637 39.6751-39.6788 39.6751h-39.678764305901446c-21.9121 0-39.6768-17.759-39.6768-39.6751V521.7192743320029c0-38.6658-27.6734-70.863-64.2951-77.9032L514.3339 141.4641l302.3647 302.352C780.0769 450.8563 752.4035 483.0535 752.4035 521.7193z" p-id="50976" fill="#ffffff"></path></svg>