<?xml version="1.0" standalone="no"?><!DOCTYPE svg PUBLIC "-//W3C//DTD SVG 1.1//EN" "http://www.w3.org/Graphics/SVG/1.1/DTD/svg11.dtd"><svg t="1493109368187" class="icon" style="" viewBox="0 0 1024 1024" version="1.1" xmlns="http://www.w3.org/2000/svg" p-id="52240" xmlns:xlink="http://www.w3.org/1999/xlink" width="200" height="200"><defs><style type="text/css"></style></defs><path d="M512 20.72487c-270.046609 0-489.73913 219.692522-489.73913 489.73913 0 270.046609 219.692522 489.73913 489.73913 489.73913s489.73913-219.692522 489.73913-489.73913C1001.73913 240.417391 782.046609 20.72487 512 20.72487zM512 955.681391c-245.49287 0-445.217391-199.724522-445.217391-445.217391 0-245.49287 199.724522-445.217391 445.217391-445.217391s445.217391 199.724522 445.217391 445.217391C957.217391 755.95687 757.49287 955.681391 512 955.681391z" p-id="52241"></path><path d="M706.137043 300.098783c-67.984696 0-123.302957 59.503304-123.302957 132.652522 0 12.288 9.97287 22.26087 22.26087 22.26087s22.26087-9.97287 22.26087-22.26087c0-48.595478 35.328-88.130783 78.781217-88.130783 43.475478 0 78.848 39.535304 78.848 88.130783 0 12.288 9.97287 22.26087 22.26087 22.26087s22.26087-9.97287 22.26087-22.26087C829.506783 359.602087 774.144 300.098783 706.137043 300.098783z" p-id="52242"></path><path d="M321.602783 344.620522c43.430957 0 78.758957 39.535304 78.758957 88.130783 0 12.288 9.97287 22.26087 22.26087 22.26087s22.26087-9.97287 22.26087-22.26087c0-73.149217-55.296-132.652522-123.280696-132.652522-68.029217 0-123.369739 59.503304-123.369739 132.652522 0 12.288 9.97287 22.26087 22.26087 22.26087s22.26087-9.97287 22.26087-22.26087C242.754783 384.155826 278.127304 344.620522 321.602783 344.620522z" p-id="52243"></path><path d="M750.302609 616.470261c-11.353043-4.674783-24.375652 0.801391-29.028174 12.198957-38.466783 94.230261-120.609391 155.113739-209.274435 155.113739s-170.807652-60.883478-209.274435-155.113739c-4.630261-11.375304-17.65287-16.896-29.028174-12.198957-11.375304 4.630261-16.851478 17.630609-12.198957 29.028174C306.821565 756.535652 405.147826 828.282435 512 828.282435s205.178435-71.746783 250.501565-182.806261C767.154087 634.10087 761.677913 621.100522 750.302609 616.470261z" p-id="52244"></path></svg>