<?xml version="1.0" standalone="no"?><!DOCTYPE svg PUBLIC "-//W3C//DTD SVG 1.1//EN" "http://www.w3.org/Graphics/SVG/1.1/DTD/svg11.dtd"><svg t="1493037099886" class="icon" style="" viewBox="0 0 1024 1024" version="1.1" xmlns="http://www.w3.org/2000/svg" p-id="37644" xmlns:xlink="http://www.w3.org/1999/xlink" width="200" height="200"><defs><style type="text/css"></style></defs><path d="M633.821919 147.513682c14.96749 3.254114 27.328512 11.227716 37.087159 23.911596 9.758648 12.68388 15.286774 28.461215 16.58745 47.330982 0 5.856381 0.328495 14.960737 0.976274 27.321252 0.653919 12.360516 0.977297 25.372877 0.977297 39.035038 0 13.661138-0.48609 26.02677-1.463388 37.086663-0.976274 11.05887-2.764063 17.887392-5.370531 20.487613-3.902026 4.556783-7.643387 6.671956-11.222036 6.348592-3.578648-0.329505-5.365414 1.462305-5.365414 5.365194 0 1.954515-0.490184 8.782014-1.463388 20.494777-0.976274 11.7056-3.740337 27.974122-8.29526 48.793286-2.601351 11.05887-6.341688 20.979824-11.222036 29.760814-4.880347 8.78099-9.920337 16.754592-15.129179 23.911596-6.504401 7.803733-13.008801 14.959713-19.518319 21.463848-0.647779 8.458649-0.976274 16.59291-0.976274 24.397666l0 20.493753c0 7.157004 0.328495 12.688997 0.976274 16.591887 0.653919 7.80578 2.602374 13.33675 5.856621 16.587793 3.25527 3.254114 9.759671 6.179746 19.518319 8.786107 3.25527 1.300622 9.110868 3.25002 17.564747 5.850242 8.457972 2.608407 18.545115 6.02011 30.253241 10.251481 11.712219 4.225231 23.911552 8.618285 36.595952 13.175067 12.689517 4.548596 24.889873 8.943696 36.596976 13.168927 11.712219 4.231371 22.11967 8.134261 31.232585 11.711739 9.105752 3.579525 15.937624 6.341429 20.494593 8.295943 13.007778 6.503111 21.628463 13.33675 25.860007 20.493753 4.227451 7.150864 7.966765 16.263405 11.223059 27.321252 1.300675 5.856381 3.091535 16.59291 5.364391 32.202423 2.278996 15.615653 4.716612 31.882128 7.318986 48.793286 2.606468 16.916275 4.716612 32.853245 6.347828 47.821145 1.625077 14.96176 2.764063 24.39562 3.411843 28.29851 0.651873 8.458649-0.811515 15.615653-4.38914 21.465894-3.577625 5.856381-11.874932 10.413164-24.887826 13.666254-11.06137 2.602268-27.160683 5.364171-48.305102 8.290827-21.142372 2.929726-45.706821 5.693676-73.683112 8.295943-27.972198 2.602268-58.716645 4.716418-92.22004 6.341429-33.508511 1.629103-68.804811 2.440585-105.885831 2.440585-37.083066 0-72.540032-0.647753-106.371921-1.948375-33.833936-1.300622-64.897668-3.093455-93.203477-5.370311-28.299669-2.272763-53.345091-4.879124-75.14036-7.804756-21.796292-2.925632-38.873925-6.018064-51.234947-9.274224-2.602374-0.647753-5.856621-1.948375-9.758648-3.901867-3.904073-1.948375-7.644411-4.38896-11.223059-7.318686-3.577625-2.925632-6.346805-6.505158-8.294237-10.736529-1.954595-4.225231-2.602374-8.943696-1.954595-14.146185 0.651873-4.554736 2.439662-14.800078 5.369508-30.739095 2.926776-15.939017 6.343735-33.015951 10.245761-51.232848 3.90305-18.215874 7.482722-35.293831 10.736969-51.230802 3.254247-15.939017 5.527103-25.864064 6.826755-29.767977 2.607491-7.804756 6.347828-15.939017 11.227152-24.39562 4.879324-8.458649 13.171514-17.240663 24.883733-26.346041 5.857645-4.554736 16.591543-9.435906 32.202719-14.638395 15.616292-5.208629 31.884458-10.086729 48.795285-14.638395 16.917991-4.554736 32.856638-8.456602 47.823105-11.711739 14.96442-3.254114 24.723067-5.531993 29.276967-6.833639 9.758648-1.948375 18.380356-4.386914 25.861031-7.318686 7.481698-2.923586 11.222036-6.989181 11.222036-12.19781l0-56.598043c-7.157297-5.856381-13.986099-12.360516-20.494593-19.517519-5.857645-5.856381-11.709149-12.850679-17.564747-20.9788-5.856621-8.134261-11.06137-16.756639-15.615269-25.859971-9.105752-17.570167-14.96442-33.670867-17.565771-48.308239-2.600328-14.637372-4.230521-23.25668-4.879324-25.858948-0.652896-2.602268-3.092558-4.717442-7.318986-6.342452-4.230521-1.630127-7.318986-5.045923-9.271534-10.250458-5.204749-11.05887-7.644411-22.76754-7.318986-35.133172 0.323378-12.359492 1.138986-29.92352 2.439662-52.695153 1.952548-22.76754 5.693909-44.561915 11.222036-65.379033 5.531197-20.819165 17.729506-40.011272 36.595952-57.58144 9.758648-8.456602 22.772566-15.44783 39.036638-20.979824 16.268165-5.526877 32.855615-9.596566 49.77156-12.19781 16.916968-2.602268 33.016281-3.901867 48.307148-3.901867 15.287798 0 26.838328 0.977257 34.644427 2.924609 8.458996 2.607384 15.289844 5.371334 20.494593 8.295943 5.202702 2.930749 9.267441 5.693676 12.19831 8.295943 2.925752 2.602268 5.365414 5.04183 7.318986 7.318686 1.948455 2.27788 3.902026 4.064572 5.856621 5.365194 3.250154 2.606361 7.481698 3.416819 12.685423 2.439562C611.70225 144.103002 620.813118 144.913461 633.821919 147.513682L633.821919 147.513682zM544.041542 682.289408l26.345074 101.489462 42.944804-115.149577-40.990209-29.275767L544.041542 682.289408zM473.775389 637.397988l-39.036638 31.231305 43.915962 115.149577 23.419322-102.46672L473.775389 637.397988zM821.196962 255.836783c9.111892 1.300622 16.429854 5.856381 21.957981 13.660114 5.53222 7.810896 8.620685 17.244756 9.272557 28.305673 0 3.248997 0.325425 8.619308 0.973204 16.1007 0.651873 7.481392 0.977297 15.123442 0.977297 22.934339 0 7.803733-0.325425 15.123442-0.977297 21.957081-0.647779 6.827499-1.625077 10.897188-2.925752 12.19781-2.602374 2.601244-5.041013 3.740184-7.318986 3.41068-2.278996-0.322341-3.415936 0.814552-3.415936 3.416819 0 1.300622-0.161689 5.371334-0.488137 12.19781-0.323378 6.833639-2.114237 16.754592-5.368484 29.766954-1.300675 6.504134-3.250154 12.359492-5.852528 17.563004-2.602374 5.204535-5.53222 9.758248-8.786467 13.661138-3.250154 4.556783-7.153203 8.78099-11.708126 12.69002-0.653919 5.202489-0.977297 10.081613-0.977297 14.638395l0 22.442128c0.653919 4.555759 1.954595 7.803733 3.90305 9.759271 1.952548 1.953492 5.856621 3.578502 11.712219 4.879124 2.602374 0.652869 8.782374 2.601244 18.539998 5.856381 9.759671 3.25002 20.332904 6.994298 31.717652 11.221576 11.384748 4.226255 21.957981 8.133238 31.715605 11.712763 9.759671 3.577478 16.59359 6.341429 20.494593 8.290827 7.807123 3.906983 13.175607 7.971555 16.101359 12.19781 2.925752 4.231371 5.04306 9.925047 6.343735 17.077957 0.651873 3.254114 1.62917 9.43386 2.929846 18.545378 1.300675 9.105379 2.600328 18.863626 3.902026 29.27372 1.300675 10.407024 2.602374 19.84293 3.90305 28.29851 1.300675 8.458649 1.952548 13.986549 1.952548 16.58677 0.649826 5.208629-0.161689 9.597589-2.438639 13.177114-2.278996 3.577478-7.318986 6.018064-15.130202 7.316639-6.503377 1.300622-14.962373 2.931772-25.373917 4.881171-10.40745 1.952468-24.069148 3.577478-40.986116 4.879124-1.300675-7.804756-3.254247-15.286148-5.856621-22.443152-1.952548-6.509251-4.225404-13.33675-6.833919-20.493753-2.600328-7.157004-5.850481-13.33675-9.757624-18.539238-7.153203-9.759271-14.638995-17.568121-22.444071-23.420409-7.805076-5.856381-15.616292-10.734482-23.421369-14.638395-7.811216-3.906983-15.616292-6.995321-23.421369-9.272177-7.80917-2.278903-15.616292-4.718465-23.425462-7.318686-33.18104-11.711739-59.855632-19.84293-80.02173-24.397666-20.171215-4.554736-31.55494-8.458649-34.15629-11.711739-1.300675-1.948375-2.115261-4.227278-2.440685-6.828522-0.323378-2.601244-0.490184-5.53097-0.490184-8.78099 0-3.25616 0.328495-6.833639 0.977297-10.736529 9.110868-2.601244 15.938647-4.231371 20.494593-4.879124 4.554923-0.652869 8.133571-1.300622 10.734922-1.953492 5.203725-1.300622 10.084072-2.76395 14.638995-4.38896 4.555946-1.629103 6.828802-4.068665 6.828802-7.317663l0-34.154891-1.948455-0.977257-3.902026-1.955538c-1.300675-0.647753-2.602374-2.27788-3.907143-4.879124 3.907143-8.456602 7.810193-18.540262 11.712219-30.254048 3.25527-10.404977 6.67223-23.093974 10.245761-38.055734 3.578648-14.96176 6.67223-32.853245 9.274604-53.67241 1.952548-16.263405 3.254247-30.900777 3.902026-43.914162 0.653919-13.008268 0.977297-24.396643 0.977297-34.154891l0-30.253024c7.805076-1.300622 16.101359-1.947352 24.883733-1.947352 8.786467 0 15.775935 0.647753 20.984777 1.947352 11.06137 3.255137 17.726436 6.509251 20.005433 9.759271 2.27695 3.254114 4.716612 5.856381 7.318986 7.810896 2.600328 1.300622 5.364391 1.787716 8.294237 1.462305C808.021354 254.048043 813.391885 254.53616 821.196962 255.836783L821.196962 255.836783zM771.425402 568.112995l6.833919 26.350135 17.564747 5.856381 13.661697-35.132148-20.4905-17.568121L771.425402 568.112995zM720.681662 550.548968l-16.592567 16.58677 0.976274 3.906983 30.254264 8.782014 3.90305-10.736529L720.681662 550.548968zM287.375598 234.369865c-10.406427-1.300622-20.817971-1.629103-31.224398-0.977257-9.111892 0.647753-19.033252 2.27788-29.769197 4.880147-10.730828 2.601244-20.651165 7.15598-29.763057 13.660114-7.805076 5.203512-13.986099 11.384281-18.539998 18.540262-4.556969 7.157004-7.972905 14.475689-10.250878 21.957081-2.272856 7.481392-3.740337 14.475689-4.388117 20.9788-0.652896 6.509251-0.977297 11.712763-0.977297 15.615653-0.647779 8.458649-1.300675 16.099676-1.954595 22.934339-0.647779 6.833639-0.322355 12.850679 0.977297 18.055215 1.300675 5.202489 2.27695 8.782014 2.929846 10.735505 0.649826 1.948375 1.949478 3.578502 3.904073 4.879124 1.947431 1.300622 3.577625 2.111081 4.879324 2.439562 1.300675 0.323365 2.601351 4.712325 3.902026 13.168927 0.652896 8.458649 2.765087 16.754592 6.342712 24.888853 3.579672 8.129144 7.318986 14.800078 11.221012 20.002566 1.954595 3.255137 4.394257 6.341429 7.318986 9.274224 2.931892 2.924609 5.693909 6.01704 8.296283 9.266038 2.601351 3.254114 5.856621 6.510274 9.759671 9.758248l0 11.713786 0 16.59291c-0.647779 3.90289-2.111167 7.151887-4.38914 9.757225-2.277973 2.601244-6.670183 4.550643-13.174584 5.851265-3.254247 0.652869-8.621708 1.953492-16.102383 3.906983-7.480675 1.948375-15.614246 4.064572-24.397643 6.342452-8.786467 2.27788-17.568841 4.716418-26.351214 7.318686-8.78135 2.602268-15.777981 4.879124-20.980683 6.827499-18.870539 9.111518-30.254264 24.726148-34.15629 46.843888-2.602374 10.407024-5.53222 23.420409-8.783397 39.035038-3.253224 15.613606-5.53222 26.673499-6.832895 33.177634s-1.14001 13.33675 0.485067 20.493753c1.630194 7.157004 6.996631 11.707646 16.106476 13.661138 4.551852 1.300622 10.245761 2.278903 17.078657 2.925632 6.828802 0.653893 13.500008 1.629103 20.004409 2.929726 7.157297 1.300622 14.637972 2.278903 22.443048 2.925632 1.306816-7.804756 3.254247-15.615653 5.856621-23.420409 1.954595-7.157004 4.716612-14.314007 8.296283-21.468964 3.579672-7.15291 7.971882-13.986549 13.175607-20.48966 5.201679-5.856381 11.546437-11.550057 19.026088-17.076934 7.485792-5.531993 14.805801-10.898211 21.957981-16.10684 7.811216-5.850242 16.268165-11.382235 25.37494-16.58677l-9.759671-24.39562 21.47189-16.591887 22.443048 25.3739 11.713243-2.925632c1.300675 0 3.254247-0.653893 5.855598-1.954515 1.300675-0.651846 2.601351-0.975211 3.90305-0.975211l18.541021-21.467941 16.591543 13.662161c3.251177-0.652869 6.182046-1.300622 8.783397-1.953492 2.601351-0.647753 5.527103-1.300622 8.782374-1.948375l9.759671-1.953492c7.157297-1.300622 13.175607-2.601244 18.054931-3.901867s7.642364-4.554736 8.294237-9.759271c0-2.601244 0.162712-4.716418 0.488137-6.341429 0.323378-1.629103 0.485067-3.091408 0.485067-4.393054l0-2.925632c-5.851505-1.953492-11.384748-3.906983-16.586426-5.856381l-13.662721-3.901867c-4.553899-1.300622-8.132548-2.606361-10.734922-3.906983-5.203725-1.947352-8.134594-4.712325-8.783397-8.289804-0.652896-3.579525-0.976274-8.295943-0.976274-14.153348l0-9.758248c0-3.254114 0.322355-6.504134 0.976274-9.758248 0-3.255137 0.325425-7.15598 0.972181-11.713786-5.201679-7.803733-10.406427-16.263405-15.610152-25.366737-4.554923-7.810896-8.948156-16.754592-13.174584-26.837228-4.232568-10.087753-7.644411-20.657482-10.251902-31.715329-3.24913-14.966876-5.527103-30.905894-6.826755-47.822169-1.301699-16.910135-1.625077-32.201399-0.977297-45.861514C284.450869 265.919419 285.428166 249.979378 287.375598 234.369865L287.375598 234.369865zM287.375598 234.369865" p-id="37645" fill="#ffffff"></path></svg>