<?xml version="1.0" standalone="no"?><!DOCTYPE svg PUBLIC "-//W3C//DTD SVG 1.1//EN" "http://www.w3.org/Graphics/SVG/1.1/DTD/svg11.dtd"><svg t="1492757788303" class="icon" style="" viewBox="0 0 1024 1024" version="1.1" xmlns="http://www.w3.org/2000/svg" p-id="7074" xmlns:xlink="http://www.w3.org/1999/xlink" width="200" height="200"><defs><style type="text/css"></style></defs><path d="M512 52.1c-277.2 0-504 189-504 415.8 0 163.8 113.4 302.4 277.2 378 25.2 12.6-50.4 119.7-18.9 126 31.5 6.3 163.8-88.2 195.3-88.2H512c277.2 0 504-189 504-415.8S789.2 58.4 512 52.1zM316.7 543.5c-25.2 0-50.4-25.2-50.4-50.4s25.2-50.4 50.4-50.4 50.4 25.2 50.4 50.4-25.2 50.4-50.4 50.4z m201.6 0c-25.2 0-50.4-25.2-50.4-50.4s25.2-50.4 50.4-50.4 50.4 25.2 50.4 50.4-25.2 50.4-50.4 50.4z m189 0c-25.2 0-50.4-25.2-50.4-50.4s25.2-50.4 50.4-50.4 50.4 25.2 50.4 50.4-25.2 50.4-50.4 50.4z" p-id="7075" fill="#ffffff"></path></svg>